<?xml version="1.0" encoding="UTF-8"?>
<svg id="Capa_1" xmlns="http://www.w3.org/2000/svg" viewBox="0 0 296 32.6">
  <defs>
    <style>
      .cls-1 {
        fill: #1d1d1b;
      }

      .cls-2 {
        isolation: isolate;
      }
    </style>
  </defs>
  <g class="cls-2">
    <path class="cls-1" d="M0,32.1V1h9c1.8,0,3.3.2,4.6.5,1.3.4,2.4.9,3.2,1.6.9.7,1.5,1.5,1.9,2.5s.6,2.1.6,3.3c0,.8-.1,1.6-.4,2.4-.3.8-.7,1.5-1.2,2.1s-1.2,1.2-2,1.7-1.7.8-2.7,1c2.4.4,4.3,1.2,5.7,2.4s2,2.9,2,5c0,1.3-.2,2.5-.7,3.6s-1.2,2-2,2.7-2,1.3-3.3,1.7-2.8.6-4.4.6H0ZM2.2,15.5h6.8c1.4,0,2.7-.2,3.7-.5,1-.4,1.9-.9,2.5-1.5.7-.6,1.1-1.3,1.4-2,.3-.8.5-1.5.5-2.4,0-2.1-.7-3.7-2-4.8-1.3-1.1-3.4-1.6-6.1-1.6H2.3v12.8h-.1ZM2.2,17.2v13.1h7.8c2.7,0,4.8-.6,6.2-1.8s2.1-2.8,2.1-5c0-1-.2-1.9-.6-2.7-.4-.8-.9-1.5-1.6-2s-1.6-1-2.6-1.3-2.2-.4-3.5-.4H2.2v.1Z"/>
    <path class="cls-1" d="M31.3,32.1h-2.3V1h2.3v31.1Z"/>
    <path class="cls-1" d="M60,1v1.9h-16.4v12.6h13.6v1.8h-13.6v13h16.4v1.8h-18.6V1h18.6Z"/>
    <path class="cls-1" d="M68.9,1c.1.1.2.2.4.3l20.2,27c0-.4-.1-.9-.1-1.3V1h2v31.1h-1.1c-.3,0-.6-.1-.8-.4l-20.2-27c0,.4.1.9.1,1.3v26.1h-2V1h1.5Z"/>
    <path class="cls-1" d="M119.3,1v1.9h-16.4v12.6h13.6v1.8h-13.6v13h16.4v1.8h-18.7V1h18.7Z"/>
    <path class="cls-1" d="M141.7,4.8c-.1.2-.3.4-.6.4-.2,0-.4-.1-.7-.4s-.7-.6-1.2-.9-1.2-.6-1.9-.9c-.8-.3-1.7-.4-2.9-.4-1.1,0-2.1.2-3,.5-.9.3-1.6.8-2.2,1.3-.6.6-1,1.2-1.3,1.9s-.5,1.5-.5,2.3c0,1.1.2,1.9.7,2.6.4.7,1,1.3,1.8,1.8.7.5,1.6.9,2.5,1.2s1.9.7,2.9,1,1.9.7,2.9,1.1c.9.4,1.8.9,2.5,1.5s1.3,1.3,1.8,2.2c.4.9.7,1.9.7,3.2s-.2,2.5-.7,3.7c-.4,1.2-1.1,2.2-1.9,3-.8.9-1.9,1.5-3.1,2-1.2.5-2.6.7-4.2.7-2.1,0-3.8-.4-5.3-1.1-1.5-.7-2.8-1.7-3.9-3l.6-1c.2-.2.4-.3.6-.3.1,0,.3.1.5.3s.5.4.7.6c.3.3.6.5,1.1.8s.9.6,1.4.8c.5.3,1.2.5,1.9.6s1.5.3,2.4.3c1.2,0,2.3-.2,3.3-.6,1-.4,1.8-.9,2.5-1.5s1.2-1.4,1.5-2.3c.4-.9.5-1.8.5-2.8,0-1.1-.2-2-.7-2.7-.4-.7-1-1.3-1.8-1.8-.7-.5-1.6-.9-2.5-1.2-.9-.3-1.9-.6-2.9-.9s-1.9-.7-2.9-1c-.9-.4-1.8-.9-2.5-1.5s-1.3-1.3-1.8-2.2c-.4-.9-.7-2-.7-3.3,0-1,.2-2,.6-3,.4-1,1-1.8,1.7-2.6.8-.7,1.7-1.3,2.8-1.8s2.4-.7,3.8-.7c1.6,0,3.1.3,4.4.8s2.5,1.3,3.5,2.4l-.4.9Z"/>
  </g>
  <g class="cls-2">
    <path class="cls-1" d="M154.3,19.7v12.4h-5.9V.3h9.7c2.2,0,4,.2,5.6.7,1.5.4,2.8,1.1,3.8,1.9s1.7,1.8,2.2,2.9.7,2.4.7,3.7c0,1.1-.2,2.1-.5,3s-.8,1.8-1.4,2.6c-.6.8-1.3,1.5-2.2,2-.9.6-1.9,1.1-3,1.4.7.4,1.4,1,1.9,1.8l8,11.7h-5.3c-.5,0-1-.1-1.3-.3-.4-.2-.7-.5-.9-.9l-6.7-10.1c-.2-.4-.5-.7-.8-.8-.3-.2-.7-.2-1.3-.2h-2.6ZM154.3,15.4h3.7c1.1,0,2.1-.1,2.9-.4.8-.3,1.5-.7,2-1.2s.9-1.1,1.2-1.7c.3-.7.4-1.4.4-2.2,0-1.6-.5-2.9-1.6-3.7-1.1-.9-2.7-1.3-4.9-1.3h-3.8v10.5h.1Z"/>
    <path class="cls-1" d="M205,32.1h-4.6c-.5,0-.9-.1-1.3-.4s-.6-.6-.7-1l-2.4-6.5h-13.2l-2.4,6.5c-.1.3-.3.6-.7.9s-.8.4-1.3.4h-4.4L186.5.2h6.1l12.4,31.9ZM184.4,20.1h10.1l-3.9-10.6c-.2-.5-.4-1-.6-1.7-.2-.6-.4-1.3-.6-2.1-.2.7-.4,1.4-.6,2.1s-.4,1.2-.6,1.7l-3.8,10.6Z"/>
    <path class="cls-1" d="M214.9,32.1h-5.9V.3h5.9v31.8Z"/>
    <path class="cls-1" d="M244,24.6c.3,0,.6.1.8.4l2.3,2.5c-1.3,1.6-2.9,2.8-4.8,3.7s-4.1,1.3-6.8,1.3c-2.4,0-4.5-.4-6.4-1.2s-3.5-1.9-4.8-3.4-2.4-3.2-3.1-5.1c-.7-2-1.1-4.2-1.1-6.5s.4-4.6,1.2-6.6,1.9-3.7,3.3-5.1c1.4-1.4,3.2-2.6,5.2-3.4s4.2-1.2,6.6-1.2,4.4.4,6.2,1.1c1.8.8,3.3,1.8,4.5,3l-2,2.8c-.1.2-.3.3-.5.5-.2.1-.4.2-.8.2-.3,0-.7-.1-1-.4-.4-.3-.8-.6-1.3-.9s-1.2-.6-2.1-.9c-.8-.3-1.9-.4-3.2-.4-1.5,0-2.9.3-4.1.8s-2.3,1.3-3.2,2.2c-.9,1-1.6,2.1-2.1,3.5s-.8,2.9-.8,4.7.3,3.4.8,4.8c.5,1.4,1.2,2.6,2.1,3.5.9,1,1.9,1.7,3.1,2.2s2.4.8,3.8.8c.8,0,1.5,0,2.2-.1s1.3-.2,1.8-.4,1.1-.4,1.6-.7,1-.7,1.5-1.1c.1-.1.3-.2.5-.3.2-.3.4-.3.6-.3Z"/>
    <path class="cls-1" d="M271.7.3v4.7h-14.1v8.8h11.1v4.6h-11.1v9h14.1v4.7h-20.1V.3h20.1Z"/>
    <path class="cls-1" d="M293.8,6.1c-.2.3-.3.6-.6.7-.2.1-.5.2-.8.2s-.6-.1-1-.3c-.4-.2-.8-.5-1.3-.8s-1.1-.5-1.7-.8c-.7-.2-1.5-.3-2.4-.3-.8,0-1.5.1-2.1.3s-1.1.5-1.5.8c-.4.4-.7.8-.9,1.3-.2.5-.3,1-.3,1.6,0,.7.2,1.4.6,1.9s1,.9,1.7,1.3,1.5.7,2.4.9,1.8.6,2.7.9c.9.3,1.8.7,2.7,1.1s1.7.9,2.4,1.6c.7.6,1.2,1.4,1.7,2.3.5.9.6,2,.6,3.4s-.2,2.8-.7,4-1.2,2.3-2.2,3.3c-.9.9-2.1,1.7-3.5,2.2s-2.9.8-4.7.8c-1,0-2-.1-3-.3s-1.9-.5-2.8-.8c-.9-.4-1.7-.8-2.5-1.3s-1.5-1.1-2.1-1.7l1.7-2.8c.2-.2.4-.4.6-.5s.5-.2.8-.2c.4,0,.8.2,1.2.5.4.3.9.6,1.5,1s1.3.7,2,1c.8.3,1.7.5,2.8.5,1.7,0,3-.4,3.9-1.2s1.4-1.9,1.4-3.4c0-.8-.2-1.5-.6-2s-1-1-1.7-1.3-1.5-.7-2.4-.9-1.8-.5-2.7-.8c-.9-.3-1.8-.6-2.7-1.1-.9-.4-1.7-.9-2.4-1.6-.7-.7-1.2-1.5-1.7-2.5s-.6-2.2-.6-3.7c0-1.2.2-2.3.7-3.4s1.1-2.1,2-2.9c.9-.9,2-1.5,3.3-2s2.8-.8,4.4-.8c1.9,0,3.6.3,5.2.9,1.6.6,2.9,1.4,4,2.5l-1.4,2.4Z"/>
  </g>
</svg>